<svg width="1024" height="1024" viewBox="0 0 1024 1024" fill="none" xmlns="http://www.w3.org/2000/svg">
<path d="M870.161 175.482L857.161 143.982C812.942 138.892 789.883 139.665 750.161 143.982C498.617 109.388 399.661 96.9823 388.161 103.982C376.661 110.982 312.661 238.48 280.161 329.482C235.614 417.766 225.368 445.882 223.661 471.982C199.223 503.314 165.354 564.007 114.661 651.482C96.7956 676.688 97.7057 688.568 100.661 709.482C142.661 809.482 258.661 796.982 708.161 923.982H716.161C736.84 894.323 759.661 822.982 775.661 756.982C826.161 643.482 836.948 606.115 868.161 506.482C902.661 386.482 912.161 346.482 924.161 303.982C920.554 291.345 916.165 285.14 906.161 274.482C878.096 275.353 868.937 276.441 859.161 278.982L859.661 277.482V257.982L851.161 256.982L862.661 232.982L868.161 205.482L852.161 204.482L870.161 175.482Z" stroke="white" stroke-width="61"/>
<path d="M870.161 175.482L857.161 143.982C812.942 138.892 789.883 139.665 750.161 143.982C498.617 109.388 399.661 96.9823 388.161 103.982C376.661 110.982 312.661 238.48 280.161 329.482C235.614 417.766 225.368 445.882 223.661 471.982C199.223 503.314 165.354 564.007 114.661 651.482C96.7956 676.688 97.7057 688.568 100.661 709.482C142.661 809.482 258.661 796.982 708.161 923.982H716.161C736.84 894.323 759.661 822.982 775.661 756.982C826.161 643.482 836.948 606.115 868.161 506.482C902.661 386.482 912.161 346.482 924.161 303.982C920.554 291.345 916.165 285.14 906.161 274.482C878.096 275.353 868.937 276.441 859.161 278.982L859.661 277.482V257.982L851.161 256.982L862.661 232.982L868.161 205.482L852.161 204.482L870.161 175.482Z" stroke="#351D10" stroke-width="23"/>
<path d="M116.661 670.982H231.661L653.161 293.482L894.161 300.982L842.161 484.982L801 601.5L697.161 889.482L231.661 785.982L122.161 737.482L116.661 670.982Z" fill="#672400"/>
<path d="M122.161 692.982L235 736L343.661 763.982L642.661 876.982L231.661 785.982L122.161 737.482V692.982Z" fill="#84370E"/>
<path d="M219.161 762.982C153.321 746.802 125.031 717.482 121.661 684.482C116.505 728.611 142.503 754.186 219.161 780.982L702.661 903.482C801.996 673.545 850.062 543.031 910.661 304.982L899.661 289.482L832.161 290.982V304.982L887.161 308.982C864.329 373.629 848.161 432.482 832.161 489.482C797.122 589.707 782.953 644.148 743.661 746.482C724.405 797.924 713.961 830.612 690.161 880.482C582.66 852.982 393.578 806.55 219.161 762.982Z" fill="url(#paint0_linear_2_2495)"/>
<path d="M219.161 762.982C153.321 746.802 125.031 717.482 121.661 684.482C116.505 728.611 142.503 754.186 219.161 780.982L702.661 903.482C694.409 891 688.39 884.408 669.661 874.982C562.16 847.482 393.578 806.55 219.161 762.982Z" fill="#A2716A"/>
<path d="M675.661 875.982C535.161 842.982 342.661 782.482 187.161 752.482L200.661 737.982L262.161 672.482L748.161 275.982L870.661 294.982L876.661 309.982C756.161 680.482 712.661 846.482 675.661 875.982Z" fill="url(#paint1_linear_2_2495)"/>
<path d="M670.161 857.982C570.661 837.482 376.661 767.482 200.661 737.982L262.161 672.482L748.161 275.982L870.661 294.982C750.161 665.482 707.161 828.482 670.161 857.982Z" fill="url(#paint2_linear_2_2495)"/>
<path d="M657.661 823.482C550.661 823.482 363.661 754.982 204.661 735.482L213.661 718.982L261.161 653.482L723.161 242.982L859.661 257.982V277.482C802.161 450.982 755.161 617.482 657.661 823.482Z" fill="url(#paint3_linear_2_2495)"/>
<path d="M652.161 802.982C545.161 802.982 372.661 738.482 213.661 718.982L261.161 653.482L723.161 242.982L859.661 257.982C789.661 451.982 739.161 633.482 652.161 802.982Z" fill="url(#paint4_linear_2_2495)"/>
<path d="M643.661 787.982C533.661 802.982 434.161 724.982 213.661 713.982L200.161 700.982L220.161 678.482L731.661 218.482L868.161 205.482L862.661 232.982C787.161 386.482 703.161 662.982 643.661 787.982Z" fill="url(#paint5_linear_2_2495)"/>
<path d="M637.161 771.982C527.161 786.982 420.661 711.982 200.161 700.982L220.161 678.482L738.161 196.982L868.161 205.482C787.622 352.729 691.578 640.679 637.161 771.982Z" fill="url(#paint6_linear_2_2495)"/>
<path d="M667.5 874L209.7 726.3L207 731L187 752.5C300 775 429.595 808.83 667.5 874Z" fill="white" fill-opacity="0.3"/>
<path d="M870.161 175.482L857.161 143.982C812.942 138.893 789.883 139.665 750.161 143.982C498.617 109.388 403.161 91.4825 388.161 103.982C373.161 116.482 312.661 238.48 280.161 329.482C235.614 417.766 225.368 445.882 223.661 471.982C199.223 503.315 165.354 564.008 114.661 651.483C96.7956 676.688 97.7057 688.568 100.661 709.483C142.661 809.483 258.661 796.983 708.161 923.983H716.161C736.84 894.324 762.161 824.483 775.661 756.983C818.661 648.982 832.948 597.615 864.161 497.982C902.865 380.015 906.161 330.482 924.161 303.982C920.554 291.345 916.165 285.14 906.161 274.482C878.096 275.353 868.937 276.442 859.161 278.982L855.161 290.982H897.661C903.103 295.209 905.055 298.02 906.161 303.982C883.462 384.214 879.357 430.328 850.661 493.482C812.431 622.676 795.937 665.153 762.661 748.483C747.563 809.849 727.07 847.332 701.661 902.483C357.661 806.483 122.448 783.901 122.661 696.483C122.844 621.483 394.661 802.983 633.661 748.483C730.161 515.483 717.661 414.482 870.161 175.482Z" fill="url(#paint7_linear_2_2495)"/>
<path d="M870.161 175.483L865.161 163.482C760.786 262.982 623.661 731.982 623.661 731.982C349.661 774.982 181.161 622.982 114.661 651.483C96.7956 676.688 97.7057 688.568 100.661 709.483C142.661 809.483 258.661 796.983 708.161 923.983H716.161C736.84 894.324 762.161 824.483 775.661 756.983C824.661 651.483 838.948 601.115 870.161 501.482C906.161 386.568 915.161 327.482 924.161 303.983C920.554 291.345 916.165 285.141 906.161 274.483C878.096 275.353 868.937 276.442 859.161 278.983L855.161 290.983H897.661C903.103 295.21 905.055 298.02 906.161 303.983C880.602 381.257 873.68 423.042 848.161 489.482C813.67 590.941 793.28 647.78 757.661 748.483C742.563 809.849 727.07 847.332 701.661 902.483C357.661 806.483 122.448 783.901 122.661 696.483C122.844 621.483 394.661 802.983 633.661 748.483C730.161 515.483 717.661 414.482 870.161 175.483Z" fill="url(#paint8_linear_2_2495)"/>
<path fill-rule="evenodd" clip-rule="evenodd" d="M612.742 610.687C589.673 629.937 577.193 641.178 563.212 666.638C561.651 669.481 558.9 671.432 555.784 672.057C536.819 675.855 523.293 684.11 507.68 693.638C506.407 694.415 505.121 695.2 503.816 695.992L501 693.638C502.336 692.827 503.661 692.018 504.979 691.213C520.47 681.75 534.182 669.245 554.409 665.193C555.565 664.961 556.54 664.245 557.077 663.269C571.697 636.644 586.233 627.914 609.5 608.5L612.742 610.687Z" fill="#9C542F"/>
<path fill-rule="evenodd" clip-rule="evenodd" d="M531.066 625.101L544.973 629.934C551.925 633.158 554.963 637.717 554.202 645.342L553.782 649.539C553.167 655.706 547.58 660.147 541.433 659.356L537.104 658.799C529.467 657.817 526.503 654.702 524.964 647.158L522.3 632.515C522.855 629.032 526.347 624.902 531.066 625.101ZM532.367 629.609C529.391 628.229 526.11 630.822 526.765 634.037L528.622 643.144C529.562 647.754 533.33 651.256 537.997 651.857L542.326 652.414C544.562 652.701 546.593 651.086 546.817 648.844L547.236 644.646C547.702 639.986 545.166 635.543 540.918 633.573L532.367 629.609Z" fill="#9C542F"/>
<path fill-rule="evenodd" clip-rule="evenodd" d="M217.699 554.53C217.635 553.442 217.571 552.332 217.506 551.199L221.5 552.5C221.567 553.675 221.635 554.828 221.701 555.964C222.658 572.342 226.391 583.27 222.24 601.047C221.851 602.709 222.579 604.391 223.961 605.205C233.177 610.629 239.016 615.06 245 620.5C250.984 625.941 253.556 633.154 258.5 641.5L255.989 644.284C251.32 636.402 246.903 630.819 241.501 625.907C236.059 620.96 229.508 616.592 220.411 611.237C216.301 608.818 214.362 603.999 215.423 599.455C219.338 582.689 218.656 570.979 217.699 554.53Z" fill="#9C542F"/>
<path fill-rule="evenodd" clip-rule="evenodd" d="M269.5 590.479L261 602.5C255.976 608.286 250.753 609.941 243.638 607.095L239.721 605.528C233.967 603.226 231.249 596.628 233.714 590.941L235.449 586.936C238.511 579.871 242.326 577.886 250 578.5L264.808 580C268 581.5 271 586 269.5 590.479ZM264.808 590.479C266.96 588.002 265.378 584.131 262.107 583.869L252.842 583.128C248.152 582.753 243.743 585.402 241.872 589.719L240.136 593.724C239.24 595.792 240.229 598.192 242.321 599.029L246.238 600.596C250.586 602.335 255.558 601.13 258.629 597.595L264.808 590.479Z" fill="#9C542F"/>
<path fill-rule="evenodd" clip-rule="evenodd" d="M742.498 200.871C733.416 197.806 724.913 186.843 713 176.5L716.795 174.857C728.881 185.351 737.174 191.687 744.736 194.238C749.842 195.961 754.602 201.059 753.798 207.403C751.981 221.755 752.415 232.991 754.971 252.547L751.5 255C748.903 235.124 744.933 221.691 746.854 206.523C747.119 204.431 745.449 201.866 742.498 200.871Z" fill="#9C542F"/>
<path fill-rule="evenodd" clip-rule="evenodd" d="M702.505 219.46L711.005 207.438C716.029 201.652 721.252 199.998 728.367 202.844L732.283 204.41C738.038 206.712 740.755 213.311 738.291 218.997L736.556 223.003C733.494 230.067 729.679 232.052 722.005 231.438L707.197 229.938C704.005 228.438 701.005 223.938 702.505 219.46ZM707.197 219.46C705.045 221.937 706.627 225.808 709.898 226.07L719.162 226.811C723.853 227.186 728.262 224.537 730.133 220.219L731.868 216.214C732.764 214.146 731.776 211.747 729.684 210.91L725.767 209.343C721.419 207.604 716.447 208.808 713.376 212.344L707.197 219.46Z" fill="#9C542F"/>
<path fill-rule="evenodd" clip-rule="evenodd" d="M483 146.14C460.51 154.403 447.456 161.662 428.173 163.076C426.895 163.17 425.665 163.972 424.973 165.275C418.202 178.024 404.897 184.559 389.455 196.308C388.725 196.863 387.984 197.427 387.232 198L386 194.124C386.517 193.73 387.028 193.341 387.531 192.958C403.649 180.684 413.007 173.558 419.073 162.135C420.751 158.975 423.928 156.68 427.685 156.405C446.015 155.06 458.558 151.206 480.894 143L483 146.14Z" fill="#9C542F"/>
<path fill-rule="evenodd" clip-rule="evenodd" d="M445.535 197.631L433.575 192.628C427.654 189.48 425.292 185.577 426.512 179.522L427.184 176.188C428.17 171.291 433.431 168.181 438.814 169.313L442.605 170.11C449.292 171.516 451.693 174.255 452.514 180.431L453.823 192.394C453.082 195.142 449.697 198.173 445.535 197.631ZM444.707 193.91C447.242 195.258 450.331 193.443 449.981 190.811L448.99 183.355C448.488 179.581 445.404 176.467 441.318 175.607L437.527 174.81C435.569 174.398 433.656 175.529 433.297 177.31L432.626 180.644C431.881 184.344 433.806 188.114 437.425 190.038L444.707 193.91Z" fill="#9C542F"/>
<path d="M792 181.5C683.1 367.751 654.136 486.369 583 687C435.5 711.5 327 652 180 622C265.642 480.076 318.108 364.324 414.5 135C593.096 167.607 671.983 176.042 792 181.5Z" stroke="#9C542F" stroke-width="7" stroke-linejoin="bevel"/>
<path d="M323.57 501.935C326.617 501.824 329.685 502.276 332.339 502.934C334.331 503.475 336.286 504.289 337.878 505.411C342.74 508.606 344.416 514.406 339.619 520.361C337.785 522.739 334.694 524.147 331.858 523.643C329.495 523.223 328.071 521.571 328.226 519.454C328.328 518.446 328.845 517.233 329.602 516.155C331.255 513.931 332.964 513.209 334.413 510.576C335.156 509.123 334.917 507.775 333.797 506.737C332.584 505.682 330.737 505.26 328.803 505.01C322.114 504.38 314.388 509.814 310.055 518.089C307.121 523.628 305.291 529.83 307.411 534.963C310.365 542.295 321.656 544.209 329.316 539.51C329.593 539.373 329.913 539.15 330.146 539.098C330.378 539.046 330.611 538.994 330.895 539.045C331.556 539.162 331.912 539.878 331.606 540.476C331.25 540.973 330.791 541.264 330.195 541.624C316.605 550.864 303.016 549.008 295.953 542.251C287.48 534.217 291.656 520.599 301.858 511.13C307.708 505.735 315.506 502.18 323.57 501.935ZM373.637 510.649C375.477 510.883 377.084 511.169 378.887 511.676C388.519 514.414 391.641 521.216 387.403 529.508L379.626 544.724C375.17 553.443 378.208 555.568 381.525 553.92C381.801 553.783 382.121 553.56 382.449 553.525C382.725 553.387 382.914 553.421 383.198 553.472C383.954 553.606 384.259 554.22 383.909 554.903C383.735 555.245 383.276 555.537 382.912 555.845C380.119 557.68 375.26 559.52 370.818 558.731C367.132 558.075 363.534 556.037 363.188 551.872C363.05 550.729 362.585 550.833 361.661 551.228C349.877 557.339 333.547 554.995 334.826 545.432C335.06 544.168 335.526 542.852 336.225 541.484C341.84 529.894 357.225 532.069 369.662 528.312C372.389 527.212 374.404 525.892 375.671 523.413C378.024 517.397 377.373 513.831 372.647 512.991C369.339 512.403 365.673 513.523 363.693 516.994C362.724 518.687 362.097 520.72 361.129 522.413C360.423 523.593 359.622 524.756 358.393 525.749C356.705 527.035 354.334 527.639 352.254 527.269C349.702 526.816 348.315 524.89 348.745 522.636C348.943 521.645 349.511 520.534 350.224 519.542C354.577 513.042 363.974 509.584 373.637 510.649ZM372.795 529.242C372.06 529.671 371.231 530.083 370.307 530.479C362.023 533.575 354.809 533.971 351.03 540.759C350.368 541.854 349.8 542.965 349.617 544.331C348.551 550.855 360.001 554.476 365.586 543.347L372.795 529.242ZM427.058 519.214C436.517 521.082 442.571 525.981 440.741 532.183C440.282 533.687 439.627 534.969 438.171 536.202C436.396 537.659 433.894 538.519 431.72 538.133C429.546 537.746 428.224 536.299 428.109 534.507C427.922 532.049 429.807 529.773 430.354 526.886C430.872 524.461 429.143 522.195 424.984 521.456C420.6 520.956 415.952 523.394 414.641 525.958C411.976 531.172 418.387 534.364 422.798 538.039C427.74 542.088 433.67 547.431 430.829 554.2C428.156 560.438 419.564 566.557 409.689 566.107C406.584 565.928 403.982 565.372 401.183 564.595C394.581 562.582 389.509 558.79 388.908 554.114C388.59 551.912 389.64 548.649 391.953 546.542C393.823 545.103 396.187 544.311 398.361 544.698C400.535 545.084 401.857 546.531 401.972 548.324C402.298 550.713 400.376 553.262 400.294 556.045C400.146 559.562 402.558 562.508 406.717 563.248C410.12 563.853 415.64 562.13 417.446 559.001C420.314 554.195 414.594 550.661 409.79 546.543C404.209 541.728 397.668 537.581 401.906 529.289C405.838 521.596 415.585 517.454 426.208 519.062L426.302 519.079C426.491 519.113 426.775 519.163 427.058 519.214ZM470.935 515.451C471.495 515.364 471.968 515.448 472.309 515.789C472.505 516.01 472.658 516.317 472.483 516.659C472.49 516.847 472.308 517.001 472.177 517.257L470.91 519.736C467.59 526.233 467.16 527.275 471.37 528.117L472.22 528.268C472.882 528.386 473.165 528.436 473.558 528.879C473.754 529.1 473.768 529.476 473.593 529.818C473.375 530.245 472.917 530.537 472.502 530.743C472.037 530.847 471.564 530.762 471.091 530.678L470.43 530.561C465.755 529.823 465.318 530.678 461.779 537.602L451.599 557.519C446.968 566.58 452.522 568.22 457.089 567.354C457.787 567.198 458.478 566.855 459.14 566.972C459.94 567.021 460.201 567.72 459.852 568.404C459.589 568.917 458.804 569.244 458.207 569.604C453.283 572.179 447.16 572.862 442.528 572.039C437.141 571.081 432.185 566.656 436.86 557.51L446.34 538.96C452.02 527.848 452.282 527.335 447.367 526.461C446.8 526.36 446.422 526.293 445.993 526.123C445.608 525.868 445.543 525.391 445.805 524.878C446.067 524.365 446.569 523.988 447.129 523.901C447.689 523.814 447.98 524.052 448.634 523.982C453.564 524.019 465.122 519.36 469.698 516.257C470.062 515.949 470.426 515.64 470.935 515.451ZM499.735 532.693C501.713 532.859 503.509 533.178 505.217 533.668C507.682 534.293 510.546 535.548 512.348 537.267C515.364 540.041 516.931 544.236 514.616 548.767C508.792 558.548 496.912 555.97 489.159 557.016C485.938 557.469 483.254 558.484 481.522 559.855C479.245 561.688 479.556 563.701 480.478 565.73C483.432 573.063 494.724 574.977 502.384 570.277C502.842 569.986 503.352 569.797 503.962 569.812C504.624 569.93 504.98 570.646 504.674 571.244C504.317 571.74 503.721 572.1 503.124 572.461C489.673 581.632 476.127 579.69 469.02 573.018C460.547 564.985 464.724 551.367 474.925 541.897C481.547 535.801 490.653 532.105 499.735 532.693ZM504.852 536.401C503.18 535.637 501.675 535.556 499.384 535.802C493.355 536.501 486.931 541.607 483.123 548.856C481.761 551.318 480.734 553.933 480.129 556.53C479.844 557.691 480.317 557.775 481.372 557.124C483.343 555.889 485.7 554.909 488.354 554.355C497.991 552.245 504.836 548.334 507.233 542.232C507.94 539.84 507.389 537.691 504.852 536.401ZM543.441 540.836C543.907 540.733 544.474 540.833 544.764 541.072C545.055 541.31 545.258 541.719 544.996 542.232L543.161 545.822C541.982 548.13 541.923 549.052 543.756 547.886C544.076 547.663 544.396 547.44 544.811 547.234C549.35 544.405 554.929 542.972 559.371 543.762C562.112 544.249 566.139 546.457 565.853 550.043C565.772 551.613 565.029 553.067 563.53 554.385C561.391 556.15 558.46 556.841 556.323 556.181C555.181 555.792 554.316 555.265 553.815 554.43C552.573 552.624 553.127 551.137 551.281 549.504C548.178 546.9 541.376 550.727 537.095 557.892C536.164 559.311 535.909 560.012 535.166 561.465L530.054 571.467C528.394 574.715 524.49 583.159 529.783 584.1C530.583 584.149 530.844 584.848 530.495 585.532C530.189 586.131 529.411 586.645 528.56 586.494L503.702 582.075C502.851 581.923 502.684 581.241 502.99 580.643C503.34 579.959 504.213 579.461 504.925 579.681C510.218 580.622 514.921 572.227 516.538 569.064L519.334 563.593C520.033 562.225 520.558 561.199 521.162 559.815C523.893 553.866 523.707 550.196 520.675 549.471C520.486 549.437 520.297 549.404 520.152 549.285C519.534 549.082 519.374 548.587 519.68 547.989C519.986 547.39 520.582 547.03 521.237 546.96C521.564 546.925 521.804 547.061 522.131 547.026C526.61 547.542 537.207 544.764 541.928 541.78C542.386 541.488 543.027 541.042 543.441 540.836Z" fill="#9C542F"/>
<path d="M504.118 269.956L586.287 280.912C589.088 281.285 589.714 283.484 588.785 285.476C587.723 287.753 585.058 289.211 582.569 288.879C565.139 286.555 550.881 314.274 545.835 325.086L496.306 431.22C491.26 442.033 479.625 469.8 497.054 472.124C499.544 472.456 500.482 474.696 499.553 476.688C498.49 478.964 496.137 480.464 493.336 480.091L411.167 469.135C408.677 468.803 407.918 466.888 408.98 464.612C409.91 462.62 412.707 460.877 414.885 461.168C432.626 463.533 446.884 435.814 451.798 425.286L501.327 319.152C506.24 308.624 518.141 280.288 500.4 277.923C498.221 277.632 497.15 275.676 498.212 273.4C499.142 271.408 501.628 269.624 504.118 269.956Z" fill="#9C542F"/>
<mask id="mask0_2_2495" style="mask-type:alpha" maskUnits="userSpaceOnUse" x="99" y="102" width="826" height="822">
<path d="M870.161 175.378L857.161 143.878C812.942 138.788 789.883 139.56 750.161 143.878C498.617 109.283 399.661 96.8778 388.161 103.878C376.661 110.878 312.661 238.376 280.161 329.378C235.614 417.661 225.368 445.777 223.661 471.878C199.223 503.21 165.354 563.903 114.661 651.378C96.7956 676.583 97.7057 688.463 100.661 709.378C142.661 809.378 258.661 796.878 708.161 923.878H716.161C736.84 894.219 759.661 822.878 775.661 756.878C826.161 643.378 836.948 606.01 868.161 506.378C902.661 386.378 912.161 346.378 924.161 303.878C920.554 291.241 916.165 285.036 906.161 274.378C878.096 275.248 868.937 276.337 859.161 278.878L859.661 277.378V257.878L851.161 256.878L862.661 232.878L868.161 205.378L852.161 204.378L870.161 175.378Z" fill="white"/>
</mask>
<g mask="url(#mask0_2_2495)">
<g style="mix-blend-mode:soft-light">
<rect x="747.023" y="-7.30469" width="70.224" height="1270.55" transform="rotate(46.6573 747.023 -7.30469)" fill="white"/>
</g>
<g style="mix-blend-mode:soft-light">
<rect x="1264.14" y="190.624" width="30.7209" height="1270.55" transform="rotate(46.6573 1264.14 190.624)" fill="white"/>
</g>
<g style="mix-blend-mode:soft-light">
<rect x="907.023" y="-7.30469" width="136.95" height="1270.55" transform="rotate(46.6573 907.023 -7.30469)" fill="white"/>
</g>
</g>
<defs>
<linearGradient id="paint0_linear_2_2495" x1="483.999" y1="682.5" x2="940.499" y2="349.5" gradientUnits="userSpaceOnUse">
<stop stop-color="#51291D"/>
<stop offset="1" stop-color="#301915"/>
</linearGradient>
<linearGradient id="paint1_linear_2_2495" x1="356.273" y1="607.618" x2="862.972" y2="346.179" gradientUnits="userSpaceOnUse">
<stop stop-color="#AE8658"/>
<stop offset="1" stop-color="#A06A48"/>
</linearGradient>
<linearGradient id="paint2_linear_2_2495" x1="256.166" y1="684.023" x2="856.575" y2="342.886" gradientUnits="userSpaceOnUse">
<stop stop-color="#E1C8A9"/>
<stop offset="1" stop-color="#DBB393"/>
</linearGradient>
<linearGradient id="paint3_linear_2_2495" x1="365.312" y1="563.84" x2="850.32" y2="318.128" gradientUnits="userSpaceOnUse">
<stop stop-color="#AE8658"/>
<stop offset="1" stop-color="#A06A48"/>
</linearGradient>
<linearGradient id="paint4_linear_2_2495" x1="267.177" y1="635.599" x2="845.498" y2="306.336" gradientUnits="userSpaceOnUse">
<stop stop-color="#E1C8A9"/>
<stop offset="1" stop-color="#DBB393"/>
</linearGradient>
<linearGradient id="paint5_linear_2_2495" x1="364" y1="528.5" x2="856" y2="276" gradientUnits="userSpaceOnUse">
<stop stop-color="#AE8658"/>
<stop offset="1" stop-color="#A06A48"/>
</linearGradient>
<linearGradient id="paint6_linear_2_2495" x1="255.5" y1="601.5" x2="852.452" y2="260.395" gradientUnits="userSpaceOnUse">
<stop stop-color="#E1C8A9"/>
<stop offset="1" stop-color="#DBB393"/>
</linearGradient>
<linearGradient id="paint7_linear_2_2495" x1="697.661" y1="471.482" x2="143.661" y2="328.982" gradientUnits="userSpaceOnUse">
<stop stop-color="#7D3C33"/>
<stop offset="1" stop-color="#56302A"/>
</linearGradient>
<linearGradient id="paint8_linear_2_2495" x1="128.5" y1="260" x2="993" y2="611.5" gradientUnits="userSpaceOnUse">
<stop stop-color="#82473B"/>
<stop offset="1" stop-color="#542B23"/>
</linearGradient>
</defs>
</svg>
