<svg width="1024" height="1024" viewBox="0 0 1024 1024" fill="none" xmlns="http://www.w3.org/2000/svg">
<path d="M870.161 175.482L857.161 143.982C812.942 138.892 789.883 139.665 750.161 143.982C498.617 109.388 399.661 96.9823 388.161 103.982C376.661 110.982 312.661 238.48 280.161 329.482C235.614 417.766 225.368 445.882 223.661 471.982C199.223 503.314 165.354 564.007 114.661 651.482C96.7956 676.688 97.7057 688.568 100.661 709.482C142.661 809.482 258.661 796.982 708.161 923.982H716.161C736.84 894.323 759.661 822.982 775.661 756.982C826.161 643.482 836.948 606.115 868.161 506.482C902.661 386.482 912.161 346.482 924.161 303.982C920.554 291.345 916.165 285.14 906.161 274.482C878.096 275.353 868.937 276.441 859.161 278.982L859.661 277.482V257.982L851.161 256.982L862.661 232.982L868.161 205.482L852.161 204.482L870.161 175.482Z" stroke="white" stroke-width="61"/>
<path d="M870.161 175.482L857.161 143.982C812.942 138.892 789.883 139.665 750.161 143.982C498.617 109.388 399.661 96.9823 388.161 103.982C376.661 110.982 312.661 238.48 280.161 329.482C235.614 417.766 225.368 445.882 223.661 471.982C199.223 503.314 165.354 564.007 114.661 651.482C96.7956 676.688 97.7057 688.568 100.661 709.482C142.661 809.482 258.661 796.982 708.161 923.982H716.161C736.84 894.323 759.661 822.982 775.661 756.982C826.161 643.482 836.948 606.115 868.161 506.482C902.661 386.482 912.161 346.482 924.161 303.982C920.554 291.345 916.165 285.14 906.161 274.482C878.096 275.353 868.937 276.441 859.161 278.982L859.661 277.482V257.982L851.161 256.982L862.661 232.982L868.161 205.482L852.161 204.482L870.161 175.482Z" stroke="#351D10" stroke-width="23"/>
<path d="M116.66 670.982H231.66L653.16 293.482L894.16 300.982L842.16 484.982L800.999 601.5L697.16 889.482L231.66 785.982L122.16 737.482L116.66 670.982Z" fill="#672400"/>
<path d="M122.16 692.982L234.999 736L343.66 763.982L642.66 876.982L231.66 785.982L122.16 737.482V692.982Z" fill="#84370E"/>
<path d="M219.161 762.982C153.321 746.802 125.031 717.482 121.661 684.482C116.505 728.611 142.503 754.186 219.161 780.982L702.661 903.482C801.996 673.545 850.062 543.031 910.661 304.982L899.661 289.482L832.161 290.982V304.982L887.161 308.982C864.329 373.629 848.161 432.482 832.161 489.482C797.122 589.707 782.953 644.148 743.661 746.482C724.405 797.924 713.961 830.612 690.161 880.482C582.66 852.982 393.578 806.55 219.161 762.982Z" fill="url(#paint0_linear_2_3022)"/>
<path d="M219.161 762.982C153.321 746.802 125.031 717.482 121.661 684.482C116.505 728.611 142.503 754.186 219.161 780.982L702.661 903.482C694.409 891 688.39 884.408 669.661 874.982C562.16 847.482 393.578 806.55 219.161 762.982Z" fill="#FCEDD9"/>
<path d="M675.66 875.982C535.16 842.982 342.66 782.482 187.16 752.482L200.66 737.982L262.16 672.482L748.16 275.982L870.66 294.982L876.66 309.982C756.16 680.482 712.66 846.482 675.66 875.982Z" fill="url(#paint1_linear_2_3022)"/>
<path d="M670.16 857.982C570.66 837.482 376.66 767.482 200.66 737.982L262.16 672.482L748.16 275.982L870.66 294.982C750.16 665.482 707.16 828.482 670.16 857.982Z" fill="url(#paint2_linear_2_3022)"/>
<path d="M657.66 823.482C550.66 823.482 363.66 754.982 204.66 735.482L213.66 718.982L261.16 653.482L723.16 242.982L859.66 257.982V277.482C802.16 450.982 755.16 617.482 657.66 823.482Z" fill="url(#paint3_linear_2_3022)"/>
<path d="M652.16 802.982C545.16 802.982 372.66 738.482 213.66 718.982L261.16 653.482L723.16 242.982L859.66 257.982C789.66 451.982 739.16 633.482 652.16 802.982Z" fill="url(#paint4_linear_2_3022)"/>
<path d="M643.66 787.982C533.66 802.982 434.16 724.982 213.66 713.982L200.16 700.982L220.16 678.482L731.66 218.482L868.16 205.482L862.66 232.982C787.16 386.482 703.16 662.982 643.66 787.982Z" fill="url(#paint5_linear_2_3022)"/>
<path d="M637.16 771.982C527.16 786.982 420.66 711.982 200.16 700.982L220.16 678.482L738.16 196.982L868.16 205.482C787.621 352.729 691.577 640.679 637.16 771.982Z" fill="url(#paint6_linear_2_3022)"/>
<path d="M667.5 874L209.7 726.3L207 731L187 752.5C300 775 429.595 808.83 667.5 874Z" fill="white" fill-opacity="0.3"/>
<path d="M870.161 175.482L857.161 143.982C812.942 138.893 789.883 139.665 750.161 143.982C498.617 109.388 403.161 91.4825 388.161 103.982C373.161 116.482 312.661 238.48 280.161 329.482C235.614 417.766 225.368 445.882 223.661 471.982C199.223 503.315 165.354 564.008 114.661 651.483C96.7956 676.688 97.7057 688.568 100.661 709.483C142.661 809.483 258.661 796.983 708.161 923.983H716.161C736.84 894.324 762.161 824.483 775.661 756.983C818.661 648.982 832.948 597.615 864.161 497.982C902.865 380.015 906.161 330.482 924.161 303.982C920.554 291.345 916.165 285.14 906.161 274.482C878.096 275.353 868.937 276.442 859.161 278.982L855.161 290.982H897.661C903.103 295.209 905.055 298.02 906.161 303.982C883.462 384.214 879.357 430.328 850.661 493.482C812.431 622.676 795.937 665.153 762.661 748.483C747.563 809.849 727.07 847.332 701.661 902.483C357.661 806.483 122.448 783.901 122.661 696.483C122.844 621.483 394.661 802.983 633.661 748.483C730.161 515.483 717.661 414.482 870.161 175.482Z" fill="url(#paint7_linear_2_3022)"/>
<path d="M870.161 175.483L865.161 163.482C760.786 262.982 623.661 731.982 623.661 731.982C349.661 774.982 181.161 622.982 114.661 651.483C96.7956 676.688 97.7057 688.568 100.661 709.483C142.661 809.483 258.661 796.983 708.161 923.983H716.161C736.84 894.324 762.161 824.483 775.661 756.983C824.661 651.483 838.948 601.115 870.161 501.482C906.161 386.568 915.161 327.482 924.161 303.983C920.554 291.345 916.165 285.141 906.161 274.483C878.096 275.353 868.937 276.442 859.161 278.983L855.161 290.983H897.661C903.103 295.21 905.055 298.02 906.161 303.983C880.602 381.257 873.68 423.042 848.161 489.482C813.67 590.941 793.28 647.78 757.661 748.483C742.563 809.849 727.07 847.332 701.661 902.483C357.661 806.483 122.448 783.901 122.661 696.483C122.844 621.483 394.661 802.983 633.661 748.483C730.161 515.483 717.661 414.482 870.161 175.483Z" fill="url(#paint8_linear_2_3022)"/>
<path fill-rule="evenodd" clip-rule="evenodd" d="M612.742 610.687C589.673 629.937 577.193 641.178 563.212 666.638C561.651 669.481 558.9 671.432 555.784 672.057C536.819 675.855 523.293 684.11 507.68 693.638C506.407 694.415 505.121 695.2 503.816 695.992L501 693.638C502.336 692.827 503.661 692.018 504.979 691.213C520.47 681.75 534.182 669.245 554.409 665.193C555.565 664.961 556.54 664.245 557.077 663.269C571.697 636.644 586.233 627.914 609.5 608.5L612.742 610.687Z" fill="#9C542F"/>
<path fill-rule="evenodd" clip-rule="evenodd" d="M531.065 625.101L544.972 629.934C551.924 633.158 554.962 637.717 554.201 645.342L553.781 649.539C553.166 655.706 547.579 660.147 541.432 659.356L537.103 658.799C529.467 657.817 526.502 654.702 524.963 647.158L522.299 632.515C522.855 629.032 526.346 624.902 531.065 625.101ZM532.366 629.609C529.39 628.229 526.109 630.822 526.764 634.037L528.621 643.144C529.561 647.754 533.329 651.256 537.996 651.857L542.326 652.414C544.561 652.701 546.592 651.086 546.816 648.844L547.235 644.646C547.701 639.986 545.165 635.543 540.917 633.573L532.366 629.609Z" fill="#9C542F"/>
<path fill-rule="evenodd" clip-rule="evenodd" d="M217.699 554.53C217.635 553.442 217.571 552.332 217.506 551.199L221.5 552.5C221.567 553.675 221.635 554.828 221.701 555.964C222.658 572.342 226.391 583.27 222.24 601.047C221.851 602.709 222.579 604.391 223.961 605.205C233.177 610.629 239.016 615.06 245 620.5C250.984 625.941 253.556 633.154 258.5 641.5L255.989 644.284C251.32 636.402 246.903 630.819 241.501 625.907C236.059 620.96 229.508 616.592 220.411 611.237C216.301 608.818 214.362 603.999 215.423 599.455C219.338 582.689 218.656 570.979 217.699 554.53Z" fill="#9C542F"/>
<path fill-rule="evenodd" clip-rule="evenodd" d="M269.501 590.479L261.001 602.5C255.977 608.286 250.754 609.941 243.639 607.095L239.722 605.528C233.968 603.226 231.25 596.628 233.715 590.941L235.45 586.936C238.512 579.871 242.327 577.886 250.001 578.5L264.809 580C268.001 581.5 271.001 586 269.501 590.479ZM264.809 590.479C266.961 588.002 265.379 584.131 262.108 583.869L252.843 583.128C248.153 582.753 243.744 585.402 241.873 589.719L240.137 593.724C239.241 595.792 240.23 598.192 242.322 599.029L246.239 600.596C250.587 602.335 255.559 601.13 258.63 597.595L264.809 590.479Z" fill="#9C542F"/>
<path fill-rule="evenodd" clip-rule="evenodd" d="M742.498 200.871C733.416 197.806 724.913 186.843 713 176.5L716.795 174.857C728.881 185.351 737.174 191.687 744.736 194.238C749.842 195.961 754.602 201.059 753.798 207.403C751.981 221.755 752.415 232.991 754.971 252.547L751.5 255C748.903 235.124 744.933 221.691 746.854 206.523C747.119 204.431 745.449 201.866 742.498 200.871Z" fill="#9C542F"/>
<path fill-rule="evenodd" clip-rule="evenodd" d="M702.505 219.46L711.005 207.438C716.029 201.652 721.252 199.998 728.367 202.844L732.283 204.41C738.038 206.712 740.755 213.311 738.291 218.997L736.556 223.003C733.494 230.067 729.679 232.052 722.005 231.438L707.197 229.938C704.005 228.438 701.005 223.938 702.505 219.46ZM707.197 219.46C705.045 221.937 706.627 225.808 709.898 226.07L719.162 226.811C723.853 227.186 728.262 224.537 730.133 220.219L731.868 216.214C732.764 214.146 731.776 211.747 729.684 210.91L725.767 209.343C721.419 207.604 716.447 208.808 713.376 212.344L707.197 219.46Z" fill="#9C542F"/>
<path fill-rule="evenodd" clip-rule="evenodd" d="M483 146.14C460.51 154.403 447.456 161.662 428.173 163.076C426.895 163.17 425.665 163.972 424.973 165.275C418.202 178.024 404.897 184.559 389.455 196.308C388.725 196.863 387.984 197.427 387.232 198L386 194.124C386.517 193.73 387.028 193.341 387.531 192.958C403.649 180.684 413.007 173.558 419.073 162.135C420.751 158.975 423.928 156.68 427.685 156.405C446.015 155.06 458.558 151.206 480.894 143L483 146.14Z" fill="#9C542F"/>
<path fill-rule="evenodd" clip-rule="evenodd" d="M445.535 197.631L433.575 192.628C427.654 189.48 425.292 185.577 426.512 179.522L427.184 176.188C428.17 171.291 433.431 168.181 438.814 169.313L442.605 170.11C449.292 171.516 451.693 174.255 452.514 180.431L453.823 192.394C453.082 195.142 449.697 198.173 445.535 197.631ZM444.707 193.91C447.242 195.258 450.331 193.443 449.981 190.811L448.99 183.355C448.488 179.581 445.404 176.467 441.318 175.607L437.527 174.81C435.569 174.398 433.656 175.529 433.297 177.31L432.626 180.644C431.881 184.344 433.806 188.114 437.425 190.038L444.707 193.91Z" fill="#9C542F"/>
<path d="M792 181.5C683.1 367.751 654.136 486.369 583 687C435.5 711.5 327 652 180 622C265.642 480.076 318.108 364.324 414.5 135C593.096 167.607 671.983 176.042 792 181.5Z" stroke="#9C542F" stroke-width="7" stroke-linejoin="bevel"/>
<path d="M521.527 291.477C522.461 291.601 523.262 292.01 524.063 292.419C525.22 293.48 525.312 294.701 524.648 296.124C523.851 297.831 522.698 298.886 521.187 299.29C519.544 299.977 517.987 299.77 516.431 299.562C496.379 297.191 491.059 304.34 490.616 327.252L488.437 438.188C488.753 440.346 489.508 440.144 491.682 438.318L586.479 340.033C606.22 319.695 608.116 312.089 588.018 309.107C586.905 308.657 585.528 308.775 584.548 308.04C583.258 307.263 582.988 305.716 583.785 304.009C584.714 302.017 587.511 300.274 590.001 300.606L652.561 308.948C654.74 309.238 655.989 311.521 655.06 313.512C654.263 315.22 652.354 316.476 650.532 316.838C648.711 317.199 647.287 316.707 645.287 316.743C632.928 316.304 614.138 322.564 596.128 341.32L453.821 488.279C452.534 489.618 451.825 490.431 450.36 491.444C448.14 492.659 446.006 492.98 444.139 492.731C441.649 492.399 440.18 491.296 439.599 489.707C439.196 488.445 439.549 486.98 439.458 485.759L442.373 320.819C443.04 298.844 430.573 288.719 419.011 286.573C417.899 286.122 416.833 286.282 416.032 285.873C414.741 285.097 414.16 283.508 415.089 281.516C416.019 279.525 418.816 277.782 421.306 278.114L520.282 291.311C520.593 291.352 521.216 291.435 521.527 291.477Z" fill="#9C542F"/>
<mask id="mask0_2_3022" style="mask-type:alpha" maskUnits="userSpaceOnUse" x="99" y="102" width="826" height="822">
<path d="M870.161 175.378L857.161 143.878C812.942 138.788 789.883 139.56 750.161 143.878C498.617 109.283 399.661 96.8778 388.161 103.878C376.661 110.878 312.661 238.376 280.161 329.378C235.614 417.661 225.368 445.777 223.661 471.878C199.223 503.21 165.354 563.903 114.661 651.378C96.7956 676.583 97.7057 688.463 100.661 709.378C142.661 809.378 258.661 796.878 708.161 923.878H716.161C736.84 894.219 759.661 822.878 775.661 756.878C826.161 643.378 836.948 606.01 868.161 506.378C902.661 386.378 912.161 346.378 924.161 303.878C920.554 291.241 916.165 285.036 906.161 274.378C878.096 275.248 868.937 276.337 859.161 278.878L859.661 277.378V257.878L851.161 256.878L862.661 232.878L868.161 205.378L852.161 204.378L870.161 175.378Z" fill="white"/>
</mask>
<g mask="url(#mask0_2_3022)">
<g style="mix-blend-mode:soft-light">
<rect x="747.023" y="-7.30469" width="70.224" height="1270.55" transform="rotate(46.6573 747.023 -7.30469)" fill="white"/>
</g>
<g style="mix-blend-mode:soft-light">
<rect x="1264.14" y="190.625" width="30.7209" height="1270.55" transform="rotate(46.6573 1264.14 190.625)" fill="white"/>
</g>
<g style="mix-blend-mode:soft-light">
<rect x="907.023" y="-7.30469" width="136.95" height="1270.55" transform="rotate(46.6573 907.023 -7.30469)" fill="white"/>
</g>
</g>
<defs>
<linearGradient id="paint0_linear_2_3022" x1="483.999" y1="682.5" x2="940.499" y2="349.5" gradientUnits="userSpaceOnUse">
<stop stop-color="#A17D52"/>
<stop offset="1" stop-color="#835C40"/>
</linearGradient>
<linearGradient id="paint1_linear_2_3022" x1="356.272" y1="607.618" x2="862.971" y2="346.179" gradientUnits="userSpaceOnUse">
<stop stop-color="#AE8658"/>
<stop offset="1" stop-color="#A06A48"/>
</linearGradient>
<linearGradient id="paint2_linear_2_3022" x1="256.165" y1="684.023" x2="856.574" y2="342.886" gradientUnits="userSpaceOnUse">
<stop stop-color="#E1C8A9"/>
<stop offset="1" stop-color="#DBB393"/>
</linearGradient>
<linearGradient id="paint3_linear_2_3022" x1="365.311" y1="563.84" x2="850.319" y2="318.128" gradientUnits="userSpaceOnUse">
<stop stop-color="#AE8658"/>
<stop offset="1" stop-color="#A06A48"/>
</linearGradient>
<linearGradient id="paint4_linear_2_3022" x1="267.176" y1="635.599" x2="845.497" y2="306.336" gradientUnits="userSpaceOnUse">
<stop stop-color="#E1C8A9"/>
<stop offset="1" stop-color="#DBB393"/>
</linearGradient>
<linearGradient id="paint5_linear_2_3022" x1="363.999" y1="528.5" x2="855.999" y2="276" gradientUnits="userSpaceOnUse">
<stop stop-color="#AE8658"/>
<stop offset="1" stop-color="#A06A48"/>
</linearGradient>
<linearGradient id="paint6_linear_2_3022" x1="255.499" y1="601.5" x2="852.451" y2="260.395" gradientUnits="userSpaceOnUse">
<stop stop-color="#E1C8A9"/>
<stop offset="1" stop-color="#DBB393"/>
</linearGradient>
<linearGradient id="paint7_linear_2_3022" x1="697.661" y1="471.482" x2="143.661" y2="328.982" gradientUnits="userSpaceOnUse">
<stop stop-color="#FCEDD9"/>
<stop offset="1" stop-color="#D0B18C"/>
</linearGradient>
<linearGradient id="paint8_linear_2_3022" x1="128.5" y1="260" x2="993" y2="611.5" gradientUnits="userSpaceOnUse">
<stop stop-color="#DDB07E"/>
<stop offset="1" stop-color="#C1926D"/>
</linearGradient>
</defs>
</svg>
