<svg width="1024" height="1024" viewBox="0 0 1024 1024" fill="none" xmlns="http://www.w3.org/2000/svg">
<path d="M870.161 175.482L857.161 143.982C812.942 138.892 789.883 139.665 750.161 143.982C498.617 109.388 399.661 96.9823 388.161 103.982C376.661 110.982 312.661 238.48 280.161 329.482C235.614 417.766 225.368 445.882 223.661 471.982C199.223 503.314 165.354 564.007 114.661 651.482C96.7956 676.688 97.7057 688.568 100.661 709.482C142.661 809.482 258.661 796.982 708.161 923.982H716.161C736.84 894.323 759.661 822.982 775.661 756.982C826.161 643.482 836.948 606.115 868.161 506.482C902.661 386.482 912.161 346.482 924.161 303.982C920.554 291.345 916.165 285.14 906.161 274.482C878.096 275.353 868.937 276.441 859.161 278.982L859.661 277.482V257.982L851.161 256.982L862.661 232.982L868.161 205.482L852.161 204.482L870.161 175.482Z" stroke="white" stroke-width="61"/>
<path d="M870.161 175.482L857.161 143.982C812.942 138.892 789.883 139.665 750.161 143.982C498.617 109.388 399.661 96.9823 388.161 103.982C376.661 110.982 312.661 238.48 280.161 329.482C235.614 417.766 225.368 445.882 223.661 471.982C199.223 503.314 165.354 564.007 114.661 651.482C96.7956 676.688 97.7057 688.568 100.661 709.482C142.661 809.482 258.661 796.982 708.161 923.982H716.161C736.84 894.323 759.661 822.982 775.661 756.982C826.161 643.482 836.948 606.115 868.161 506.482C902.661 386.482 912.161 346.482 924.161 303.982C920.554 291.345 916.165 285.14 906.161 274.482C878.096 275.353 868.937 276.441 859.161 278.982L859.661 277.482V257.982L851.161 256.982L862.661 232.982L868.161 205.482L852.161 204.482L870.161 175.482Z" stroke="#351D10" stroke-width="23"/>
<path d="M116.661 670.982H231.661L653.161 293.482L894.161 300.982L842.161 484.982L801 601.5L697.161 889.482L231.661 785.982L122.161 737.482L116.661 670.982Z" fill="#672400"/>
<path d="M122.161 692.982L235 736L343.661 763.982L642.661 876.982L231.661 785.982L122.161 737.482V692.982Z" fill="#84370E"/>
<path d="M219.161 762.982C153.321 746.802 125.031 717.482 121.661 684.482C116.505 728.611 142.503 754.186 219.161 780.982L702.661 903.482C801.996 673.545 850.062 543.031 910.661 304.982L899.661 289.482L832.161 290.982V304.982L887.161 308.982C864.329 373.629 848.161 432.482 832.161 489.482C797.122 589.707 782.953 644.148 743.661 746.482C724.405 797.924 713.961 830.612 690.161 880.482C582.66 852.982 393.578 806.55 219.161 762.982Z" fill="url(#paint0_linear_2_2804)"/>
<path d="M219.161 762.982C153.321 746.802 125.031 717.482 121.661 684.482C116.505 728.611 142.503 754.186 219.161 780.982L702.661 903.482C694.409 891 688.39 884.408 669.661 874.982C562.16 847.482 393.578 806.55 219.161 762.982Z" fill="#FCEDD9"/>
<path d="M675.661 875.982C535.161 842.982 342.661 782.482 187.161 752.482L200.661 737.982L262.161 672.482L748.161 275.982L870.661 294.982L876.661 309.982C756.161 680.482 712.661 846.482 675.661 875.982Z" fill="url(#paint1_linear_2_2804)"/>
<path d="M670.161 857.982C570.661 837.482 376.661 767.482 200.661 737.982L262.161 672.482L748.161 275.982L870.661 294.982C750.161 665.482 707.161 828.482 670.161 857.982Z" fill="url(#paint2_linear_2_2804)"/>
<path d="M657.661 823.482C550.661 823.482 363.661 754.982 204.661 735.482L213.661 718.982L261.161 653.482L723.161 242.982L859.661 257.982V277.482C802.161 450.982 755.161 617.482 657.661 823.482Z" fill="url(#paint3_linear_2_2804)"/>
<path d="M652.161 802.982C545.161 802.982 372.661 738.482 213.661 718.982L261.161 653.482L723.161 242.982L859.661 257.982C789.661 451.982 739.161 633.482 652.161 802.982Z" fill="url(#paint4_linear_2_2804)"/>
<path d="M643.661 787.982C533.661 802.982 434.161 724.982 213.661 713.982L200.161 700.982L220.161 678.482L731.661 218.482L868.161 205.482L862.661 232.982C787.161 386.482 703.161 662.982 643.661 787.982Z" fill="url(#paint5_linear_2_2804)"/>
<path d="M637.161 771.982C527.161 786.982 420.661 711.982 200.161 700.982L220.161 678.482L738.161 196.982L868.161 205.482C787.622 352.729 691.578 640.679 637.161 771.982Z" fill="url(#paint6_linear_2_2804)"/>
<path d="M667.5 874L209.7 726.3L207 731L187 752.5C300 775 429.595 808.83 667.5 874Z" fill="white" fill-opacity="0.3"/>
<path d="M870.161 175.482L857.161 143.982C812.942 138.893 789.883 139.665 750.161 143.982C498.617 109.388 403.161 91.4825 388.161 103.982C373.161 116.482 312.661 238.48 280.161 329.482C235.614 417.766 225.368 445.882 223.661 471.982C199.223 503.315 165.354 564.008 114.661 651.483C96.7956 676.688 97.7057 688.568 100.661 709.483C142.661 809.483 258.661 796.983 708.161 923.983H716.161C736.84 894.324 762.161 824.483 775.661 756.983C818.661 648.982 832.948 597.615 864.161 497.982C902.865 380.015 906.161 330.482 924.161 303.982C920.554 291.345 916.165 285.14 906.161 274.482C878.096 275.353 868.937 276.442 859.161 278.982L855.161 290.982H897.661C903.103 295.209 905.055 298.02 906.161 303.982C883.462 384.214 879.357 430.328 850.661 493.482C812.431 622.676 795.937 665.153 762.661 748.483C747.563 809.849 727.07 847.332 701.661 902.483C357.661 806.483 122.448 783.901 122.661 696.483C122.844 621.483 394.661 802.983 633.661 748.483C730.161 515.483 717.661 414.482 870.161 175.482Z" fill="url(#paint7_linear_2_2804)"/>
<path d="M870.161 175.483L865.161 163.482C760.786 262.982 623.661 731.982 623.661 731.982C349.661 774.982 181.161 622.982 114.661 651.483C96.7956 676.688 97.7057 688.568 100.661 709.483C142.661 809.483 258.661 796.983 708.161 923.983H716.161C736.84 894.324 762.161 824.483 775.661 756.983C824.661 651.483 838.948 601.115 870.161 501.482C906.161 386.568 915.161 327.482 924.161 303.983C920.554 291.345 916.165 285.141 906.161 274.483C878.096 275.353 868.937 276.442 859.161 278.983L855.161 290.983H897.661C903.103 295.21 905.055 298.02 906.161 303.983C880.602 381.257 873.68 423.042 848.161 489.482C813.67 590.941 793.28 647.78 757.661 748.483C742.563 809.849 727.07 847.332 701.661 902.483C357.661 806.483 122.448 783.901 122.661 696.483C122.844 621.483 394.661 802.983 633.661 748.483C730.161 515.483 717.661 414.482 870.161 175.483Z" fill="url(#paint8_linear_2_2804)"/>
<defs>
<linearGradient id="paint0_linear_2_2804" x1="483.999" y1="682.5" x2="940.499" y2="349.5" gradientUnits="userSpaceOnUse">
<stop stop-color="#A17D52"/>
<stop offset="1" stop-color="#835C40"/>
</linearGradient>
<linearGradient id="paint1_linear_2_2804" x1="356.273" y1="607.618" x2="862.972" y2="346.179" gradientUnits="userSpaceOnUse">
<stop stop-color="#AE8658"/>
<stop offset="1" stop-color="#A06A48"/>
</linearGradient>
<linearGradient id="paint2_linear_2_2804" x1="256.166" y1="684.023" x2="856.575" y2="342.886" gradientUnits="userSpaceOnUse">
<stop stop-color="#E1C8A9"/>
<stop offset="1" stop-color="#DBB393"/>
</linearGradient>
<linearGradient id="paint3_linear_2_2804" x1="365.312" y1="563.84" x2="850.32" y2="318.128" gradientUnits="userSpaceOnUse">
<stop stop-color="#AE8658"/>
<stop offset="1" stop-color="#A06A48"/>
</linearGradient>
<linearGradient id="paint4_linear_2_2804" x1="267.177" y1="635.599" x2="845.498" y2="306.336" gradientUnits="userSpaceOnUse">
<stop stop-color="#E1C8A9"/>
<stop offset="1" stop-color="#DBB393"/>
</linearGradient>
<linearGradient id="paint5_linear_2_2804" x1="364" y1="528.5" x2="856" y2="276" gradientUnits="userSpaceOnUse">
<stop stop-color="#AE8658"/>
<stop offset="1" stop-color="#A06A48"/>
</linearGradient>
<linearGradient id="paint6_linear_2_2804" x1="255.5" y1="601.5" x2="852.452" y2="260.395" gradientUnits="userSpaceOnUse">
<stop stop-color="#E1C8A9"/>
<stop offset="1" stop-color="#DBB393"/>
</linearGradient>
<linearGradient id="paint7_linear_2_2804" x1="697.661" y1="471.482" x2="143.661" y2="328.982" gradientUnits="userSpaceOnUse">
<stop stop-color="#FCEDD9"/>
<stop offset="1" stop-color="#D0B18C"/>
</linearGradient>
<linearGradient id="paint8_linear_2_2804" x1="128.5" y1="260" x2="993" y2="611.5" gradientUnits="userSpaceOnUse">
<stop stop-color="#DDB07E"/>
<stop offset="1" stop-color="#C1926D"/>
</linearGradient>
</defs>
</svg>
