<svg width="1024" height="1024" viewBox="0 0 1024 1024" fill="none" xmlns="http://www.w3.org/2000/svg">
<path d="M870.161 175.482L857.161 143.982C812.942 138.892 789.883 139.665 750.161 143.982C498.617 109.388 399.661 96.9823 388.161 103.982C376.661 110.982 312.661 238.48 280.161 329.482C235.614 417.766 225.368 445.882 223.661 471.982C199.223 503.314 165.354 564.007 114.661 651.482C96.7956 676.688 97.7057 688.568 100.661 709.482C142.661 809.482 258.661 796.982 708.161 923.982H716.161C736.84 894.323 759.661 822.982 775.661 756.982C826.161 643.482 836.948 606.115 868.161 506.482C902.661 386.482 912.161 346.482 924.161 303.982C920.554 291.345 916.165 285.14 906.161 274.482C878.096 275.353 868.937 276.441 859.161 278.982L859.661 277.482V257.982L851.161 256.982L862.661 232.982L868.161 205.482L852.161 204.482L870.161 175.482Z" stroke="white" stroke-width="61"/>
<path d="M870.161 175.482L857.161 143.982C812.942 138.892 789.883 139.665 750.161 143.982C498.617 109.388 399.661 96.9823 388.161 103.982C376.661 110.982 312.661 238.48 280.161 329.482C235.614 417.766 225.368 445.882 223.661 471.982C199.223 503.314 165.354 564.007 114.661 651.482C96.7956 676.688 97.7057 688.568 100.661 709.482C142.661 809.482 258.661 796.982 708.161 923.982H716.161C736.84 894.323 759.661 822.982 775.661 756.982C826.161 643.482 836.948 606.115 868.161 506.482C902.661 386.482 912.161 346.482 924.161 303.982C920.554 291.345 916.165 285.14 906.161 274.482C878.096 275.353 868.937 276.441 859.161 278.982L859.661 277.482V257.982L851.161 256.982L862.661 232.982L868.161 205.482L852.161 204.482L870.161 175.482Z" stroke="#351D10" stroke-width="23"/>
<path d="M116.66 670.982H231.66L653.16 293.482L894.16 300.982L842.16 484.982L800.999 601.5L697.16 889.482L231.66 785.982L122.16 737.482L116.66 670.982Z" fill="#672400"/>
<path d="M122.16 692.982L234.999 736L343.66 763.982L642.66 876.982L231.66 785.982L122.16 737.482V692.982Z" fill="#84370E"/>
<path d="M219.161 762.982C153.321 746.802 125.031 717.482 121.661 684.482C116.505 728.611 142.503 754.186 219.161 780.982L702.661 903.482C801.996 673.545 850.062 543.031 910.661 304.982L899.661 289.482L832.161 290.982V304.982L887.161 308.982C864.329 373.629 848.161 432.482 832.161 489.482C797.122 589.707 782.953 644.148 743.661 746.482C724.405 797.924 713.961 830.612 690.161 880.482C582.66 852.982 393.578 806.55 219.161 762.982Z" fill="url(#paint0_linear_2_2980)"/>
<path d="M219.161 762.982C153.321 746.802 125.031 717.482 121.661 684.482C116.505 728.611 142.503 754.186 219.161 780.982L702.661 903.482C694.409 891 688.39 884.408 669.661 874.982C562.16 847.482 393.578 806.55 219.161 762.982Z" fill="#FCEDD9"/>
<path d="M675.661 875.982C535.161 842.982 342.661 782.482 187.161 752.482L200.661 737.982L262.161 672.482L748.161 275.982L870.661 294.982L876.661 309.982C756.161 680.482 712.661 846.482 675.661 875.982Z" fill="url(#paint1_linear_2_2980)"/>
<path d="M670.161 857.982C570.661 837.482 376.661 767.482 200.661 737.982L262.161 672.482L748.161 275.982L870.661 294.982C750.161 665.482 707.161 828.482 670.161 857.982Z" fill="url(#paint2_linear_2_2980)"/>
<path d="M657.661 823.482C550.661 823.482 363.661 754.982 204.661 735.482L213.661 718.982L261.161 653.482L723.161 242.982L859.661 257.982V277.482C802.161 450.982 755.161 617.482 657.661 823.482Z" fill="url(#paint3_linear_2_2980)"/>
<path d="M652.161 802.982C545.161 802.982 372.661 738.482 213.661 718.982L261.161 653.482L723.161 242.982L859.661 257.982C789.661 451.982 739.161 633.482 652.161 802.982Z" fill="url(#paint4_linear_2_2980)"/>
<path d="M643.661 787.982C533.661 802.982 434.161 724.982 213.661 713.982L200.161 700.982L220.161 678.482L731.661 218.482L868.161 205.482L862.661 232.982C787.161 386.482 703.161 662.982 643.661 787.982Z" fill="url(#paint5_linear_2_2980)"/>
<path d="M637.161 771.982C527.161 786.982 420.661 711.982 200.161 700.982L220.161 678.482L738.161 196.982L868.161 205.482C787.622 352.729 691.578 640.679 637.161 771.982Z" fill="url(#paint6_linear_2_2980)"/>
<path d="M667.5 874L209.7 726.3L207 731L187 752.5C300 775 429.595 808.83 667.5 874Z" fill="white" fill-opacity="0.3"/>
<path d="M870.161 175.482L857.161 143.982C812.942 138.893 789.883 139.665 750.161 143.982C498.617 109.388 403.161 91.4825 388.161 103.982C373.161 116.482 312.661 238.48 280.161 329.482C235.614 417.766 225.368 445.882 223.661 471.982C199.223 503.315 165.354 564.008 114.661 651.483C96.7956 676.688 97.7057 688.568 100.661 709.483C142.661 809.483 258.661 796.983 708.161 923.983H716.161C736.84 894.324 762.161 824.483 775.661 756.983C818.661 648.982 832.948 597.615 864.161 497.982C902.865 380.015 906.161 330.482 924.161 303.982C920.554 291.345 916.165 285.14 906.161 274.482C878.096 275.353 868.937 276.442 859.161 278.982L855.161 290.982H897.661C903.103 295.209 905.055 298.02 906.161 303.982C883.462 384.214 879.357 430.328 850.661 493.482C812.431 622.676 795.937 665.153 762.661 748.483C747.563 809.849 727.07 847.332 701.661 902.483C357.661 806.483 122.448 783.901 122.661 696.483C122.844 621.483 394.661 802.983 633.661 748.483C730.161 515.483 717.661 414.482 870.161 175.482Z" fill="url(#paint7_linear_2_2980)"/>
<path d="M870.161 175.483L865.161 163.482C760.786 262.982 623.661 731.982 623.661 731.982C349.661 774.982 181.161 622.982 114.661 651.483C96.7956 676.688 97.7057 688.568 100.661 709.483C142.661 809.483 258.661 796.983 708.161 923.983H716.161C736.84 894.324 762.161 824.483 775.661 756.983C824.661 651.483 838.948 601.115 870.161 501.482C906.161 386.568 915.161 327.482 924.161 303.983C920.554 291.345 916.165 285.141 906.161 274.483C878.096 275.353 868.937 276.442 859.161 278.983L855.161 290.983H897.661C903.103 295.21 905.055 298.02 906.161 303.983C880.602 381.257 873.68 423.042 848.161 489.482C813.67 590.941 793.28 647.78 757.661 748.483C742.563 809.849 727.07 847.332 701.661 902.483C357.661 806.483 122.448 783.901 122.661 696.483C122.844 621.483 394.661 802.983 633.661 748.483C730.161 515.483 717.661 414.482 870.161 175.483Z" fill="url(#paint8_linear_2_2980)"/>
<path fill-rule="evenodd" clip-rule="evenodd" d="M612.742 610.687C589.673 629.937 577.193 641.178 563.212 666.638C561.651 669.481 558.9 671.432 555.784 672.057C536.819 675.855 523.293 684.11 507.68 693.638C506.407 694.415 505.121 695.2 503.816 695.992L501 693.638C502.336 692.827 503.661 692.018 504.979 691.213C520.47 681.75 534.182 669.245 554.409 665.193C555.565 664.961 556.54 664.245 557.077 663.269C571.697 636.644 586.233 627.914 609.5 608.5L612.742 610.687Z" fill="#9C542F"/>
<path fill-rule="evenodd" clip-rule="evenodd" d="M531.065 625.101L544.972 629.934C551.924 633.158 554.962 637.717 554.201 645.342L553.781 649.539C553.166 655.706 547.579 660.147 541.432 659.356L537.103 658.799C529.467 657.817 526.502 654.702 524.963 647.158L522.299 632.515C522.855 629.032 526.346 624.902 531.065 625.101ZM532.366 629.609C529.39 628.229 526.109 630.822 526.764 634.037L528.621 643.144C529.561 647.754 533.329 651.256 537.996 651.857L542.326 652.414C544.561 652.701 546.592 651.086 546.816 648.844L547.235 644.646C547.701 639.986 545.165 635.543 540.917 633.573L532.366 629.609Z" fill="#9C542F"/>
<path fill-rule="evenodd" clip-rule="evenodd" d="M217.699 554.53C217.635 553.442 217.571 552.332 217.506 551.199L221.5 552.5C221.567 553.675 221.635 554.828 221.701 555.964C222.658 572.342 226.391 583.27 222.24 601.047C221.851 602.709 222.579 604.391 223.961 605.205C233.177 610.629 239.016 615.06 245 620.5C250.984 625.941 253.556 633.154 258.5 641.5L255.989 644.284C251.32 636.402 246.903 630.819 241.501 625.907C236.059 620.96 229.508 616.592 220.411 611.237C216.301 608.818 214.362 603.999 215.423 599.455C219.338 582.689 218.656 570.979 217.699 554.53Z" fill="#9C542F"/>
<path fill-rule="evenodd" clip-rule="evenodd" d="M269.5 590.479L261 602.5C255.976 608.286 250.753 609.941 243.638 607.095L239.721 605.528C233.967 603.226 231.249 596.628 233.714 590.941L235.449 586.936C238.511 579.871 242.326 577.886 250 578.5L264.808 580C268 581.5 271 586 269.5 590.479ZM264.808 590.479C266.96 588.002 265.378 584.131 262.107 583.869L252.842 583.128C248.152 582.753 243.743 585.402 241.872 589.719L240.136 593.724C239.24 595.792 240.229 598.192 242.321 599.029L246.238 600.596C250.586 602.335 255.558 601.13 258.629 597.595L264.808 590.479Z" fill="#9C542F"/>
<path fill-rule="evenodd" clip-rule="evenodd" d="M742.498 200.871C733.416 197.806 724.913 186.843 713 176.5L716.795 174.857C728.881 185.351 737.174 191.687 744.736 194.238C749.842 195.961 754.602 201.059 753.798 207.403C751.981 221.755 752.415 232.991 754.971 252.547L751.5 255C748.903 235.124 744.933 221.691 746.854 206.523C747.119 204.431 745.449 201.866 742.498 200.871Z" fill="#9C542F"/>
<path fill-rule="evenodd" clip-rule="evenodd" d="M702.505 219.46L711.005 207.438C716.029 201.652 721.252 199.998 728.367 202.844L732.283 204.41C738.038 206.712 740.755 213.311 738.291 218.997L736.556 223.003C733.494 230.067 729.679 232.052 722.005 231.438L707.197 229.938C704.005 228.438 701.005 223.938 702.505 219.46ZM707.197 219.46C705.045 221.937 706.627 225.808 709.898 226.07L719.162 226.811C723.853 227.186 728.262 224.537 730.133 220.219L731.868 216.214C732.764 214.146 731.776 211.747 729.684 210.91L725.767 209.343C721.419 207.604 716.447 208.808 713.376 212.344L707.197 219.46Z" fill="#9C542F"/>
<path fill-rule="evenodd" clip-rule="evenodd" d="M483 146.14C460.51 154.403 447.456 161.662 428.173 163.076C426.895 163.17 425.665 163.972 424.973 165.275C418.202 178.024 404.897 184.559 389.455 196.308C388.725 196.863 387.984 197.427 387.232 198L386 194.124C386.517 193.73 387.028 193.341 387.531 192.958C403.649 180.684 413.007 173.558 419.073 162.135C420.751 158.975 423.928 156.68 427.685 156.405C446.015 155.06 458.558 151.206 480.894 143L483 146.14Z" fill="#9C542F"/>
<path fill-rule="evenodd" clip-rule="evenodd" d="M445.535 197.631L433.575 192.628C427.654 189.48 425.292 185.577 426.512 179.522L427.184 176.188C428.17 171.291 433.431 168.181 438.814 169.313L442.605 170.11C449.292 171.516 451.693 174.255 452.514 180.431L453.823 192.394C453.082 195.142 449.697 198.173 445.535 197.631ZM444.707 193.91C447.242 195.258 450.331 193.443 449.981 190.811L448.99 183.355C448.488 179.581 445.404 176.467 441.318 175.607L437.527 174.81C435.569 174.398 433.656 175.529 433.297 177.31L432.626 180.644C431.881 184.344 433.806 188.114 437.425 190.038L444.707 193.91Z" fill="#9C542F"/>
<path d="M792 181.5C683.1 367.751 654.136 486.369 583 687C435.5 711.5 327 652 180 622C265.642 480.076 318.108 364.324 414.5 135C593.096 167.607 671.983 176.042 792 181.5Z" stroke="#9C542F" stroke-width="7" stroke-linejoin="bevel"/>
<path d="M408.374 263.523L490.543 274.479C493.344 274.852 493.971 277.052 493.041 279.043C491.979 281.32 489.315 282.778 486.825 282.446C469.395 280.122 455.137 307.841 450.091 318.654L400.562 424.788C395.516 435.6 383.881 463.367 401.311 465.691C403.801 466.023 404.739 468.263 403.809 470.255C402.747 472.532 400.394 474.031 397.593 473.658L315.424 462.702C312.934 462.37 312.174 460.455 313.237 458.179C314.166 456.187 316.963 454.444 319.142 454.735C336.883 457.1 351.141 429.381 356.054 418.853L405.583 312.719C410.496 302.191 422.397 273.856 404.656 271.49C402.477 271.2 401.407 269.243 402.469 266.967C403.398 264.975 405.884 263.191 408.374 263.523ZM562.146 284.026C563.08 284.15 563.881 284.559 564.682 284.968C565.84 286.03 565.931 287.251 565.267 288.673C564.471 290.381 563.317 291.436 561.806 291.839C560.163 292.527 558.607 292.319 557.051 292.112C536.998 289.74 531.678 296.889 531.235 319.801L529.057 430.737C529.372 432.895 530.127 432.693 532.302 430.868L627.099 332.583C646.839 312.244 648.735 304.638 628.637 301.656C627.525 301.206 626.147 301.324 625.168 300.589C623.877 299.813 623.607 298.266 624.404 296.558C625.334 294.567 628.131 292.824 630.62 293.156L693.181 301.497C695.36 301.788 696.609 304.07 695.679 306.062C694.883 307.769 692.974 309.026 691.152 309.387C689.33 309.749 687.907 309.257 685.906 309.292C673.548 308.854 654.757 315.113 636.747 333.869L494.44 480.828C493.154 482.168 492.444 482.98 490.979 483.994C488.759 485.209 486.626 485.529 484.759 485.28C482.269 484.948 480.799 483.845 480.218 482.257C479.816 480.994 480.168 479.53 480.077 478.309L482.992 313.369C483.659 291.393 471.193 281.268 459.631 279.122C458.519 278.672 457.452 278.832 456.651 278.423C455.36 277.646 454.779 276.057 455.709 274.066C456.638 272.074 459.435 270.331 461.925 270.663L560.901 283.86C561.213 283.901 561.835 283.984 562.146 284.026Z" fill="#9C542F"/>
<mask id="mask0_2_2980" style="mask-type:alpha" maskUnits="userSpaceOnUse" x="99" y="102" width="826" height="822">
<path d="M870.161 175.378L857.161 143.878C812.942 138.788 789.883 139.56 750.161 143.878C498.617 109.283 399.661 96.8778 388.161 103.878C376.661 110.878 312.661 238.376 280.161 329.378C235.614 417.661 225.368 445.777 223.661 471.878C199.223 503.21 165.354 563.903 114.661 651.378C96.7956 676.583 97.7057 688.463 100.661 709.378C142.661 809.378 258.661 796.878 708.161 923.878H716.161C736.84 894.219 759.661 822.878 775.661 756.878C826.161 643.378 836.948 606.01 868.161 506.378C902.661 386.378 912.161 346.378 924.161 303.878C920.554 291.241 916.165 285.036 906.161 274.378C878.096 275.248 868.937 276.337 859.161 278.878L859.661 277.378V257.878L851.161 256.878L862.661 232.878L868.161 205.378L852.161 204.378L870.161 175.378Z" fill="white"/>
</mask>
<g mask="url(#mask0_2_2980)">
<g style="mix-blend-mode:soft-light">
<rect x="747.023" y="-7.30469" width="70.224" height="1270.55" transform="rotate(46.6573 747.023 -7.30469)" fill="white"/>
</g>
<g style="mix-blend-mode:soft-light">
<rect x="1264.14" y="190.625" width="30.7209" height="1270.55" transform="rotate(46.6573 1264.14 190.625)" fill="white"/>
</g>
<g style="mix-blend-mode:soft-light">
<rect x="907.023" y="-7.30469" width="136.95" height="1270.55" transform="rotate(46.6573 907.023 -7.30469)" fill="white"/>
</g>
</g>
<defs>
<linearGradient id="paint0_linear_2_2980" x1="483.999" y1="682.5" x2="940.499" y2="349.5" gradientUnits="userSpaceOnUse">
<stop stop-color="#A17D52"/>
<stop offset="1" stop-color="#835C40"/>
</linearGradient>
<linearGradient id="paint1_linear_2_2980" x1="356.273" y1="607.618" x2="862.972" y2="346.179" gradientUnits="userSpaceOnUse">
<stop stop-color="#AE8658"/>
<stop offset="1" stop-color="#A06A48"/>
</linearGradient>
<linearGradient id="paint2_linear_2_2980" x1="256.166" y1="684.023" x2="856.575" y2="342.886" gradientUnits="userSpaceOnUse">
<stop stop-color="#E1C8A9"/>
<stop offset="1" stop-color="#DBB393"/>
</linearGradient>
<linearGradient id="paint3_linear_2_2980" x1="365.312" y1="563.84" x2="850.32" y2="318.128" gradientUnits="userSpaceOnUse">
<stop stop-color="#AE8658"/>
<stop offset="1" stop-color="#A06A48"/>
</linearGradient>
<linearGradient id="paint4_linear_2_2980" x1="267.177" y1="635.599" x2="845.498" y2="306.336" gradientUnits="userSpaceOnUse">
<stop stop-color="#E1C8A9"/>
<stop offset="1" stop-color="#DBB393"/>
</linearGradient>
<linearGradient id="paint5_linear_2_2980" x1="364" y1="528.5" x2="856" y2="276" gradientUnits="userSpaceOnUse">
<stop stop-color="#AE8658"/>
<stop offset="1" stop-color="#A06A48"/>
</linearGradient>
<linearGradient id="paint6_linear_2_2980" x1="255.5" y1="601.5" x2="852.452" y2="260.395" gradientUnits="userSpaceOnUse">
<stop stop-color="#E1C8A9"/>
<stop offset="1" stop-color="#DBB393"/>
</linearGradient>
<linearGradient id="paint7_linear_2_2980" x1="697.661" y1="471.482" x2="143.661" y2="328.982" gradientUnits="userSpaceOnUse">
<stop stop-color="#FCEDD9"/>
<stop offset="1" stop-color="#D0B18C"/>
</linearGradient>
<linearGradient id="paint8_linear_2_2980" x1="128.5" y1="260" x2="993" y2="611.5" gradientUnits="userSpaceOnUse">
<stop stop-color="#DDB07E"/>
<stop offset="1" stop-color="#C1926D"/>
</linearGradient>
</defs>
</svg>
