<svg width="1024" height="1024" viewBox="0 0 1024 1024" fill="none" xmlns="http://www.w3.org/2000/svg">
<path d="M870.161 175.482L857.161 143.982C812.942 138.892 789.883 139.665 750.161 143.982C498.617 109.388 399.661 96.9823 388.161 103.982C376.661 110.982 312.661 238.48 280.161 329.482C235.614 417.766 225.368 445.882 223.661 471.982C199.223 503.314 165.354 564.007 114.661 651.482C96.7956 676.688 97.7057 688.568 100.661 709.482C142.661 809.482 258.661 796.982 708.161 923.982H716.161C736.84 894.323 759.661 822.982 775.661 756.982C826.161 643.482 836.948 606.115 868.161 506.482C902.661 386.482 912.161 346.482 924.161 303.982C920.554 291.345 916.165 285.14 906.161 274.482C878.096 275.353 868.937 276.441 859.161 278.982L859.661 277.482V257.982L851.161 256.982L862.661 232.982L868.161 205.482L852.161 204.482L870.161 175.482Z" stroke="white" stroke-width="61"/>
<path d="M870.161 175.482L857.161 143.982C812.942 138.892 789.883 139.665 750.161 143.982C498.617 109.388 399.661 96.9823 388.161 103.982C376.661 110.982 312.661 238.48 280.161 329.482C235.614 417.766 225.368 445.882 223.661 471.982C199.223 503.314 165.354 564.007 114.661 651.482C96.7956 676.688 97.7057 688.568 100.661 709.482C142.661 809.482 258.661 796.982 708.161 923.982H716.161C736.84 894.323 759.661 822.982 775.661 756.982C826.161 643.482 836.948 606.115 868.161 506.482C902.661 386.482 912.161 346.482 924.161 303.982C920.554 291.345 916.165 285.14 906.161 274.482C878.096 275.353 868.937 276.441 859.161 278.982L859.661 277.482V257.982L851.161 256.982L862.661 232.982L868.161 205.482L852.161 204.482L870.161 175.482Z" stroke="#351D10" stroke-width="23"/>
<path d="M116.661 670.982H231.661L653.161 293.482L894.161 300.982L842.161 484.982L801 601.5L697.161 889.482L231.661 785.982L122.161 737.482L116.661 670.982Z" fill="#672400"/>
<path d="M122.161 692.982L235 736L343.661 763.982L642.661 876.982L231.661 785.982L122.161 737.482V692.982Z" fill="#84370E"/>
<path d="M219.161 762.982C153.321 746.802 125.031 717.482 121.661 684.482C116.505 728.611 142.503 754.186 219.161 780.982L702.661 903.482C801.996 673.545 850.062 543.031 910.661 304.982L899.661 289.482L832.161 290.982V304.982L887.161 308.982C864.329 373.629 848.161 432.482 832.161 489.482C797.122 589.707 782.953 644.148 743.661 746.482C724.405 797.924 713.961 830.612 690.161 880.482C582.66 852.982 393.578 806.55 219.161 762.982Z" fill="url(#paint0_linear_2_2675)"/>
<path d="M219.161 762.982C153.321 746.802 125.031 717.482 121.661 684.482C116.505 728.611 142.503 754.186 219.161 780.982L702.661 903.482C694.409 891 688.39 884.408 669.661 874.982C562.16 847.482 393.578 806.55 219.161 762.982Z" fill="#A2716A"/>
<path d="M675.661 875.982C535.161 842.982 342.661 782.482 187.161 752.482L200.661 737.982L262.161 672.482L748.161 275.982L870.661 294.982L876.661 309.982C756.161 680.482 712.661 846.482 675.661 875.982Z" fill="url(#paint1_linear_2_2675)"/>
<path d="M670.161 857.982C570.661 837.482 376.661 767.482 200.661 737.982L262.161 672.482L748.161 275.982L870.661 294.982C750.161 665.482 707.161 828.482 670.161 857.982Z" fill="url(#paint2_linear_2_2675)"/>
<path d="M657.661 823.482C550.661 823.482 363.661 754.982 204.661 735.482L213.661 718.982L261.161 653.482L723.161 242.982L859.661 257.982V277.482C802.161 450.982 755.161 617.482 657.661 823.482Z" fill="url(#paint3_linear_2_2675)"/>
<path d="M652.161 802.982C545.161 802.982 372.661 738.482 213.661 718.982L261.161 653.482L723.161 242.982L859.661 257.982C789.661 451.982 739.161 633.482 652.161 802.982Z" fill="url(#paint4_linear_2_2675)"/>
<path d="M643.661 787.982C533.661 802.982 434.161 724.982 213.661 713.982L200.161 700.982L220.161 678.482L731.661 218.482L868.161 205.482L862.661 232.982C787.161 386.482 703.161 662.982 643.661 787.982Z" fill="url(#paint5_linear_2_2675)"/>
<path d="M637.161 771.982C527.161 786.982 420.661 711.982 200.161 700.982L220.161 678.482L738.161 196.982L868.161 205.482C787.622 352.729 691.578 640.679 637.161 771.982Z" fill="url(#paint6_linear_2_2675)"/>
<path d="M667.5 874L209.7 726.3L207 731L187 752.5C300 775 429.595 808.83 667.5 874Z" fill="white" fill-opacity="0.3"/>
<path d="M870.161 175.482L857.161 143.982C812.942 138.893 789.883 139.665 750.161 143.982C498.617 109.388 403.161 91.4825 388.161 103.982C373.161 116.482 312.661 238.48 280.161 329.482C235.614 417.766 225.368 445.882 223.661 471.982C199.223 503.315 165.354 564.008 114.661 651.483C96.7956 676.688 97.7057 688.568 100.661 709.483C142.661 809.483 258.661 796.983 708.161 923.983H716.161C736.84 894.324 762.161 824.483 775.661 756.983C818.661 648.982 832.948 597.615 864.161 497.982C902.865 380.015 906.161 330.482 924.161 303.982C920.554 291.345 916.165 285.14 906.161 274.482C878.096 275.353 868.937 276.442 859.161 278.982L855.161 290.982H897.661C903.103 295.209 905.055 298.02 906.161 303.982C883.462 384.214 879.357 430.328 850.661 493.482C812.431 622.676 795.937 665.153 762.661 748.483C747.563 809.849 727.07 847.332 701.661 902.483C357.661 806.483 122.448 783.901 122.661 696.483C122.844 621.483 394.661 802.983 633.661 748.483C730.161 515.483 717.661 414.482 870.161 175.482Z" fill="url(#paint7_linear_2_2675)"/>
<path d="M870.161 175.483L865.161 163.482C760.786 262.982 623.661 731.982 623.661 731.982C349.661 774.982 181.161 622.982 114.661 651.483C96.7956 676.688 97.7057 688.568 100.661 709.483C142.661 809.483 258.661 796.983 708.161 923.983H716.161C736.84 894.324 762.161 824.483 775.661 756.983C824.661 651.483 838.948 601.115 870.161 501.482C906.161 386.568 915.161 327.482 924.161 303.983C920.554 291.345 916.165 285.141 906.161 274.483C878.096 275.353 868.937 276.442 859.161 278.983L855.161 290.983H897.661C903.103 295.21 905.055 298.02 906.161 303.983C880.602 381.257 873.68 423.042 848.161 489.482C813.67 590.941 793.28 647.78 757.661 748.483C742.563 809.849 727.07 847.332 701.661 902.483C357.661 806.483 122.448 783.901 122.661 696.483C122.844 621.483 394.661 802.983 633.661 748.483C730.161 515.483 717.661 414.482 870.161 175.483Z" fill="url(#paint8_linear_2_2675)"/>
<path fill-rule="evenodd" clip-rule="evenodd" d="M612.742 610.687C589.673 629.937 577.193 641.178 563.212 666.638C561.651 669.481 558.9 671.432 555.784 672.057C536.819 675.855 523.293 684.11 507.68 693.638C506.407 694.415 505.121 695.2 503.816 695.992L501 693.638C502.336 692.827 503.661 692.018 504.979 691.213C520.47 681.75 534.182 669.245 554.409 665.193C555.565 664.961 556.54 664.245 557.077 663.269C571.697 636.644 586.233 627.914 609.5 608.5L612.742 610.687Z" fill="#9C542F"/>
<path fill-rule="evenodd" clip-rule="evenodd" d="M531.066 625.101L544.973 629.934C551.925 633.158 554.963 637.717 554.202 645.342L553.782 649.539C553.167 655.706 547.58 660.147 541.433 659.356L537.104 658.799C529.467 657.817 526.503 654.702 524.964 647.158L522.3 632.515C522.855 629.032 526.347 624.902 531.066 625.101ZM532.367 629.609C529.391 628.229 526.11 630.822 526.765 634.037L528.622 643.144C529.562 647.754 533.33 651.256 537.997 651.857L542.326 652.414C544.562 652.701 546.593 651.086 546.817 648.844L547.236 644.646C547.702 639.986 545.166 635.543 540.918 633.573L532.367 629.609Z" fill="#9C542F"/>
<path fill-rule="evenodd" clip-rule="evenodd" d="M217.699 554.53C217.635 553.442 217.571 552.332 217.506 551.199L221.5 552.5C221.567 553.675 221.635 554.828 221.701 555.964C222.658 572.342 226.391 583.27 222.24 601.047C221.851 602.709 222.579 604.391 223.961 605.205C233.177 610.629 239.016 615.06 245 620.5C250.984 625.941 253.556 633.154 258.5 641.5L255.989 644.284C251.32 636.402 246.903 630.819 241.501 625.907C236.059 620.96 229.508 616.592 220.411 611.237C216.301 608.818 214.362 603.999 215.423 599.455C219.338 582.689 218.656 570.979 217.699 554.53Z" fill="#9C542F"/>
<path fill-rule="evenodd" clip-rule="evenodd" d="M269.5 590.479L261 602.5C255.976 608.286 250.753 609.941 243.638 607.095L239.721 605.528C233.967 603.226 231.249 596.628 233.714 590.941L235.449 586.936C238.511 579.871 242.326 577.886 250 578.5L264.808 580C268 581.5 271 586 269.5 590.479ZM264.808 590.479C266.96 588.002 265.378 584.131 262.107 583.869L252.842 583.128C248.152 582.753 243.743 585.402 241.872 589.719L240.136 593.724C239.24 595.792 240.229 598.192 242.321 599.029L246.238 600.596C250.586 602.335 255.558 601.13 258.629 597.595L264.808 590.479Z" fill="#9C542F"/>
<path fill-rule="evenodd" clip-rule="evenodd" d="M742.498 200.871C733.416 197.806 724.913 186.843 713 176.5L716.795 174.857C728.881 185.351 737.174 191.687 744.736 194.238C749.842 195.961 754.602 201.059 753.798 207.403C751.981 221.755 752.415 232.991 754.971 252.547L751.5 255C748.903 235.124 744.933 221.691 746.854 206.523C747.119 204.431 745.449 201.866 742.498 200.871Z" fill="#9C542F"/>
<path fill-rule="evenodd" clip-rule="evenodd" d="M702.505 219.46L711.005 207.438C716.029 201.652 721.252 199.998 728.367 202.844L732.283 204.41C738.038 206.712 740.755 213.311 738.291 218.997L736.556 223.003C733.494 230.067 729.679 232.052 722.005 231.438L707.197 229.938C704.005 228.438 701.005 223.938 702.505 219.46ZM707.197 219.46C705.045 221.937 706.627 225.808 709.898 226.07L719.162 226.811C723.853 227.186 728.262 224.537 730.133 220.219L731.868 216.214C732.764 214.146 731.776 211.747 729.684 210.91L725.767 209.343C721.419 207.604 716.447 208.808 713.376 212.344L707.197 219.46Z" fill="#9C542F"/>
<path fill-rule="evenodd" clip-rule="evenodd" d="M483 146.14C460.51 154.403 447.456 161.662 428.173 163.076C426.895 163.17 425.665 163.972 424.973 165.275C418.202 178.024 404.897 184.559 389.455 196.308C388.725 196.863 387.984 197.427 387.232 198L386 194.124C386.517 193.73 387.028 193.341 387.531 192.958C403.649 180.684 413.007 173.558 419.073 162.135C420.751 158.975 423.928 156.68 427.685 156.405C446.015 155.06 458.558 151.206 480.894 143L483 146.14Z" fill="#9C542F"/>
<path fill-rule="evenodd" clip-rule="evenodd" d="M445.535 197.631L433.575 192.628C427.654 189.48 425.292 185.577 426.512 179.522L427.184 176.188C428.17 171.291 433.431 168.181 438.814 169.313L442.605 170.11C449.292 171.516 451.693 174.255 452.514 180.431L453.823 192.394C453.082 195.142 449.697 198.173 445.535 197.631ZM444.707 193.91C447.242 195.258 450.331 193.443 449.981 190.811L448.99 183.355C448.488 179.581 445.404 176.467 441.318 175.607L437.527 174.81C435.569 174.398 433.656 175.529 433.297 177.31L432.626 180.644C431.881 184.344 433.806 188.114 437.425 190.038L444.707 193.91Z" fill="#9C542F"/>
<path d="M792 181.5C683.1 367.751 654.136 486.369 583 687C435.5 711.5 327 652 180 622C265.642 480.076 318.108 364.324 414.5 135C593.096 167.607 671.983 176.042 792 181.5Z" stroke="#9C542F" stroke-width="7" stroke-linejoin="bevel"/>
<path d="M402.078 257.217L484.247 268.172C487.048 268.546 487.675 270.745 486.745 272.737C485.683 275.013 483.019 276.472 480.529 276.14C463.099 273.816 448.841 301.535 443.795 312.347L394.266 418.481C389.22 429.294 377.585 457.06 395.015 459.384C397.505 459.716 398.443 461.957 397.513 463.949C396.451 466.225 394.098 467.725 391.297 467.352L309.128 456.396C306.638 456.064 305.878 454.149 306.941 451.873C307.87 449.881 310.667 448.138 312.846 448.429C330.587 450.794 344.845 423.075 349.758 412.547L399.287 306.413C404.2 295.885 416.101 267.549 398.36 265.184C396.181 264.893 395.111 262.937 396.173 260.661C397.102 258.669 399.588 256.885 402.078 257.217ZM505.117 270.955L587.286 281.911C590.088 282.285 590.714 284.484 589.785 286.476C588.722 288.752 586.058 290.21 583.568 289.878C566.139 287.554 551.881 315.273 546.835 326.086L497.305 432.22C492.26 443.032 480.624 470.799 498.054 473.123C500.544 473.455 501.482 475.696 500.553 477.688C499.49 479.964 497.137 481.464 494.336 481.09L412.167 470.134C409.677 469.802 408.918 467.888 409.98 465.611C410.91 463.619 413.707 461.877 415.885 462.167C433.626 464.533 447.884 436.813 452.797 426.285L502.327 320.151C507.24 309.623 519.14 281.288 501.399 278.922C499.221 278.632 498.15 276.676 499.212 274.399C500.142 272.407 502.628 270.623 505.117 270.955ZM608.157 284.694L690.326 295.65C693.127 296.023 693.754 298.222 692.824 300.214C691.762 302.491 689.098 303.949 686.608 303.617C669.178 301.293 654.92 329.012 649.874 339.824L600.345 445.958C595.299 456.771 583.664 484.538 601.093 486.862C603.583 487.194 604.521 489.434 603.592 491.426C602.53 493.702 600.177 495.202 597.375 494.829L515.207 483.873C512.717 483.541 511.957 481.626 513.019 479.35C513.949 477.358 516.746 475.615 518.925 475.906C536.666 478.271 550.924 450.552 555.837 440.024L605.366 333.89C610.279 323.362 622.18 295.026 604.439 292.661C602.26 292.37 601.189 290.414 602.252 288.138C603.181 286.146 605.667 284.362 608.157 284.694Z" fill="#9C542F"/>
<mask id="mask0_2_2675" style="mask-type:alpha" maskUnits="userSpaceOnUse" x="99" y="102" width="826" height="822">
<path d="M870.161 175.378L857.161 143.878C812.942 138.788 789.883 139.56 750.161 143.878C498.617 109.283 399.661 96.8778 388.161 103.878C376.661 110.878 312.661 238.376 280.161 329.378C235.614 417.661 225.368 445.777 223.661 471.878C199.223 503.21 165.354 563.903 114.661 651.378C96.7956 676.583 97.7057 688.463 100.661 709.378C142.661 809.378 258.661 796.878 708.161 923.878H716.161C736.84 894.219 759.661 822.878 775.661 756.878C826.161 643.378 836.948 606.01 868.161 506.378C902.661 386.378 912.161 346.378 924.161 303.878C920.554 291.241 916.165 285.036 906.161 274.378C878.096 275.248 868.937 276.337 859.161 278.878L859.661 277.378V257.878L851.161 256.878L862.661 232.878L868.161 205.378L852.161 204.378L870.161 175.378Z" fill="white"/>
</mask>
<g mask="url(#mask0_2_2675)">
<g style="mix-blend-mode:soft-light">
<rect x="747.023" y="-7.30469" width="70.224" height="1270.55" transform="rotate(46.6573 747.023 -7.30469)" fill="white"/>
</g>
<g style="mix-blend-mode:soft-light">
<rect x="1264.14" y="190.625" width="30.7209" height="1270.55" transform="rotate(46.6573 1264.14 190.625)" fill="white"/>
</g>
<g style="mix-blend-mode:soft-light">
<rect x="907.023" y="-7.30469" width="136.95" height="1270.55" transform="rotate(46.6573 907.023 -7.30469)" fill="white"/>
</g>
</g>
<defs>
<linearGradient id="paint0_linear_2_2675" x1="483.999" y1="682.5" x2="940.499" y2="349.5" gradientUnits="userSpaceOnUse">
<stop stop-color="#51291D"/>
<stop offset="1" stop-color="#301915"/>
</linearGradient>
<linearGradient id="paint1_linear_2_2675" x1="356.273" y1="607.618" x2="862.972" y2="346.179" gradientUnits="userSpaceOnUse">
<stop stop-color="#AE8658"/>
<stop offset="1" stop-color="#A06A48"/>
</linearGradient>
<linearGradient id="paint2_linear_2_2675" x1="256.166" y1="684.023" x2="856.575" y2="342.886" gradientUnits="userSpaceOnUse">
<stop stop-color="#E1C8A9"/>
<stop offset="1" stop-color="#DBB393"/>
</linearGradient>
<linearGradient id="paint3_linear_2_2675" x1="365.312" y1="563.84" x2="850.32" y2="318.128" gradientUnits="userSpaceOnUse">
<stop stop-color="#AE8658"/>
<stop offset="1" stop-color="#A06A48"/>
</linearGradient>
<linearGradient id="paint4_linear_2_2675" x1="267.177" y1="635.599" x2="845.498" y2="306.336" gradientUnits="userSpaceOnUse">
<stop stop-color="#E1C8A9"/>
<stop offset="1" stop-color="#DBB393"/>
</linearGradient>
<linearGradient id="paint5_linear_2_2675" x1="364" y1="528.5" x2="856" y2="276" gradientUnits="userSpaceOnUse">
<stop stop-color="#AE8658"/>
<stop offset="1" stop-color="#A06A48"/>
</linearGradient>
<linearGradient id="paint6_linear_2_2675" x1="255.5" y1="601.5" x2="852.452" y2="260.395" gradientUnits="userSpaceOnUse">
<stop stop-color="#E1C8A9"/>
<stop offset="1" stop-color="#DBB393"/>
</linearGradient>
<linearGradient id="paint7_linear_2_2675" x1="697.661" y1="471.482" x2="143.661" y2="328.982" gradientUnits="userSpaceOnUse">
<stop stop-color="#7D3C33"/>
<stop offset="1" stop-color="#56302A"/>
</linearGradient>
<linearGradient id="paint8_linear_2_2675" x1="128.5" y1="260" x2="993" y2="611.5" gradientUnits="userSpaceOnUse">
<stop stop-color="#82473B"/>
<stop offset="1" stop-color="#542B23"/>
</linearGradient>
</defs>
</svg>
